<?xml version="1.0" standalone="no"?>
<!DOCTYPE svg PUBLIC "-//W3C//DTD SVG 20010904//EN"
 "http://www.w3.org/TR/2001/REC-SVG-20010904/DTD/svg10.dtd">
<svg version="1.0" xmlns="http://www.w3.org/2000/svg"
 width="700.000000pt" height="700.000000pt" viewBox="0 0 700.000000 700.000000"
 preserveAspectRatio="xMidYMid meet">
<metadata>
Created by potrace 1.14, written by Peter Selinger 2001-2017
</metadata>
<g transform="translate(0.000000,700.000000) scale(0.100000,-0.100000)"
fill="#000000" stroke="none">
<path d="M1390 6840 l0 -120 55 0 55 0 1 -37 c0 -21 1 -74 2 -118 l2 -80 110
-2 c61 -1 140 -2 178 -3 l67 0 0 -55 0 -55 -120 0 -120 0 0 -55 0 -55 -115 0
-115 0 0 -65 0 -65 115 0 115 0 0 -55 0 -55 55 0 55 0 0 -60 0 -60 65 0 65 0
0 -60 0 -60 -120 0 -120 0 0 -115 0 -114 -57 -3 c-64 -3 -58 4 -62 -85 -1 -21
-6 -23 -51 -23 l-50 0 -1 48 c-1 26 -1 50 0 55 0 4 -25 7 -57 7 l-58 0 3 60 3
60 -185 0 -185 0 3 -62 2 -63 60 -5 60 -5 0 -112 0 -113 121 0 122 0 -1 58 -2
57 53 3 52 3 0 -61 0 -61 63 3 62 3 0 58 0 57 52 0 53 0 0 -110 0 -109 -112
-3 -113 -3 -3 -62 -3 -63 -54 0 -55 0 0 -55 0 -55 -60 0 -60 0 0 -66 c0 -56 2
-65 18 -63 9 1 113 1 230 0 l212 -1 0 -115 0 -115 55 0 55 0 0 -55 c0 -60 2
-59 -72 -55 l-38 2 0 -176 0 -176 -110 0 -110 0 0 55 0 55 -55 0 -54 0 -3 62
-3 63 -63 0 -62 0 0 57 0 58 -180 -2 -180 -2 0 -58 0 -58 60 0 59 0 3 -62 3
-63 58 0 c44 1 57 -3 58 -15 1 -8 2 -26 4 -40 1 -14 3 -32 3 -42 2 -14 19 -16
160 -14 86 1 163 0 170 -2 8 -3 12 -25 12 -63 l0 -59 58 0 57 0 -3 -55 -4 -55
-54 0 -54 0 0 -55 0 -55 -115 0 -115 0 0 -65 0 -65 235 0 235 0 0 60 0 60 55
0 55 0 0 55 0 55 60 0 60 0 0 -55 0 -55 115 0 115 0 0 -55 0 -55 -47 -1 c-27
0 -78 -1 -115 -1 l-68 0 0 -54 c0 -44 -3 -54 -17 -55 -10 -1 -63 -2 -118 -3
l-100 -1 0 -65 0 -65 235 0 235 0 3 118 3 117 114 0 115 0 0 -55 0 -54 58 -3
57 -3 1 -57 0 -58 -58 0 c-41 0 -58 -4 -57 -12 1 -7 1 -32 0 -55 l-1 -43 -120
0 -120 0 0 -65 0 -65 120 0 120 0 0 -55 0 -55 60 0 60 0 0 55 0 55 55 0 c30 0
56 5 56 10 1 6 3 55 4 110 1 55 3 104 4 108 0 4 25 8 54 7 l52 0 5 -55 c5 -55
5 -55 40 -57 19 -1 43 -2 53 -2 14 -1 17 -11 17 -61 l0 -60 115 0 115 0 0 -50
0 -50 -170 0 -170 0 0 -60 0 -60 -115 0 c-112 0 -115 -1 -116 -22 -2 -27 -2
-78 0 -95 1 -10 55 -13 236 -13 l235 0 0 60 0 60 115 0 115 0 0 -60 0 -60 55
0 55 0 0 -755 0 -755 -55 0 -55 0 -1 -132 c-1 -73 -2 -154 -2 -181 l-2 -47
-467 0 -468 0 0 -55 0 -55 -120 0 -120 0 0 -65 0 -65 185 0 185 0 0 60 0 60
285 0 285 0 0 -55 0 -55 -60 0 -60 0 0 -55 0 -55 -170 0 c-129 0 -170 -3 -171
-12 -1 -7 -1 -32 0 -55 1 -22 -3 -44 -9 -48 -6 -4 -87 -7 -181 -6 l-169 0 0
-59 0 -60 470 0 470 0 0 55 0 54 118 3 117 3 1 30 c4 94 -2 85 59 85 l55 0 0
-60 0 -60 55 0 55 0 0 -55 0 -54 63 -3 62 -3 0 -120 0 -120 60 0 60 0 5 -55 5
-54 53 -2 52 -1 0 233 c0 180 -3 234 -12 235 -7 0 -28 2 -45 3 -46 3 -51 -3
-55 -59 l-3 -50 -57 -2 -58 -2 0 55 c0 30 3 53 8 53 4 -1 31 -1 60 0 l52 1 0
65 0 65 -60 0 -60 0 0 50 0 50 115 0 115 0 0 -55 0 -55 175 0 175 0 0 -60 0
-60 355 0 355 0 0 65 0 65 -295 0 -295 0 0 55 0 55 -115 0 -115 0 0 60 0 60
-55 0 -55 0 -2 178 -3 177 -62 3 -63 3 0 54 0 55 -55 0 -55 0 0 755 0 755 55
0 55 0 0 60 0 61 113 -3 112 -3 3 -57 3 -58 119 0 119 0 3 58 3 57 58 3 57 3
0 64 0 65 -60 0 -60 0 0 55 0 55 -60 0 -60 0 0 -55 0 -55 -110 0 -110 0 0 50
0 50 55 0 55 0 0 60 0 60 58 1 c31 0 83 0 114 -1 l57 -1 3 58 3 58 40 1 c22 0
45 -1 51 -3 6 -2 10 -40 9 -101 0 -53 1 -105 3 -114 4 -17 24 -18 243 -18
l239 0 0 65 0 65 -60 0 -60 0 0 55 0 55 -175 0 -175 0 0 60 0 60 115 0 115 0
0 55 0 55 115 0 114 0 3 -117 3 -118 235 0 235 0 0 65 0 65 -52 -1 c-42 -1
-53 3 -54 15 -1 9 -2 34 -3 56 l-1 40 -45 2 c-25 1 -53 2 -62 2 -16 1 -18 13
-18 111 l0 110 60 0 60 0 0 -55 0 -55 55 0 55 0 0 -60 0 -60 235 0 235 0 0 65
0 65 -60 0 -60 0 0 55 0 55 -115 0 -115 0 0 55 0 55 60 0 60 0 0 60 c0 50 3
60 18 61 9 0 87 1 172 2 l155 2 1 40 c3 74 0 71 52 70 70 -2 72 0 72 66 l0 59
60 0 61 0 -3 58 -3 57 -240 0 -240 0 -3 -117 -3 -118 -114 0 -115 0 0 -55 0
-55 -50 0 -50 0 -2 173 -3 172 -52 3 -53 3 0 60 0 59 -65 0 c-58 0 -65 -2 -66
-20 -1 -11 -2 -63 -2 -115 l-1 -94 -56 -3 -55 -3 -3 -62 c-3 -55 -1 -63 15
-64 10 -1 29 -3 43 -4 14 -1 33 -3 42 -4 13 -1 17 -9 16 -33 -2 -73 0 -76 35
-76 17 0 69 0 115 -1 l82 -1 0 -55 0 -55 -170 0 -170 0 0 60 0 60 -60 0 -60 0
0 120 0 120 -62 -2 -63 -3 -3 -62 -3 -63 -59 0 -60 0 0 -180 0 -180 60 0 60 0
0 -50 0 -51 -112 3 -113 3 0 110 0 110 -58 3 -57 3 0 59 0 60 -60 0 -60 0 0
50 c0 57 -16 50 135 55 44 1 85 3 90 4 6 0 10 28 10 64 l-1 62 -57 3 -57 3 0
49 0 50 235 0 235 0 0 65 0 65 -60 0 -60 0 0 55 0 55 -118 0 -118 0 0 53 1 52
58 3 59 3 -4 59 -3 59 30 3 c17 2 69 2 117 0 l87 -3 3 -57 3 -57 60 -5 60 -5
0 -55 0 -55 233 -3 232 -2 0 65 0 65 -55 0 c-37 0 -55 4 -56 13 -3 40 -1 89 4
94 3 3 27 6 54 7 l48 1 5 55 5 55 155 2 c85 1 163 2 173 3 14 0 17 10 17 65
l0 65 -115 0 -115 0 0 55 0 55 -60 0 -60 0 0 55 0 55 230 0 c197 0 230 2 231
15 1 8 2 32 2 53 l1 37 61 5 60 5 3 55 c2 30 5 57 7 59 3 2 29 4 60 4 l55 0 0
58 0 59 -245 0 -245 0 0 -55 0 -55 -55 0 -55 0 0 -60 0 -60 -55 0 -55 0 0 60
0 60 -55 0 -55 0 0 115 0 115 -55 0 -54 0 -3 63 -3 62 -117 3 -118 3 0 49 0
50 290 0 290 0 0 65 0 65 -115 0 -115 0 0 55 0 55 -120 0 -120 0 0 55 0 55 43
1 c23 0 76 1 117 2 l75 2 3 53 c3 46 6 52 25 53 12 0 36 2 52 2 l30 2 3 123
c2 107 5 122 20 123 9 1 35 2 57 3 l40 1 1 53 c0 28 -2 52 -5 53 -8 1 -82 1
-102 0 -14 -1 -16 -11 -14 -51 l3 -50 -114 0 -113 0 -3 -62 -3 -63 -58 0 c-31
0 -57 -4 -58 -10 0 -5 -1 -58 -1 -117 l-1 -108 -54 0 -53 0 0 119 0 119 -47 0
c-27 0 -54 0 -60 1 -9 1 -13 20 -13 61 l0 60 -65 0 -65 0 0 -125 0 -125 -115
0 -115 0 0 -55 0 -55 -59 0 c-38 0 -60 -4 -63 -12 -2 -7 -4 -86 -3 -175 l1
-163 -53 0 -53 0 0 115 0 115 -60 0 -60 0 0 -115 0 -115 -115 0 -115 0 0 -55
0 -55 -60 0 -60 0 0 110 0 110 65 0 65 0 0 55 0 55 55 0 55 0 0 65 0 65 -175
0 -175 0 0 55 0 55 -60 0 -60 0 0 180 0 180 -65 0 -65 0 0 -55 0 -55 -55 0
-55 0 0 -185 c0 -143 3 -186 13 -184 6 1 31 1 55 0 l42 -1 0 -60 0 -60 60 0
60 0 0 -50 0 -50 -60 0 -60 0 0 -59 c0 -70 -3 -72 -92 -62 -5 1 -8 53 -8 116
l0 114 -62 3 -63 3 0 55 0 55 -122 3 -123 3 0 -121 0 -120 65 0 65 0 0 -55 0
-55 -65 0 -65 0 0 -120 0 -120 65 0 65 0 0 -230 0 -230 -60 0 -60 0 0 55 0 55
-55 0 -55 0 0 60 0 60 -60 0 -60 0 0 115 0 115 60 0 60 0 0 120 0 120 -60 0
-60 0 0 115 0 115 -60 0 -60 0 0 -115 0 -116 -57 3 -57 3 0 228 0 227 -118 0
-118 0 0 -230 0 -230 -55 0 -55 0 0 60 0 60 -60 0 -60 0 0 50 0 50 60 0 60 0
0 245 0 245 -65 0 -65 0 0 -125 0 -125 -60 0 -60 0 0 -55 0 -55 -54 0 -54 0 2
111 c0 65 -3 114 -9 117 -5 4 -32 7 -60 7 l-50 0 -3 63 -3 62 -109 0 c-107 0
-110 1 -111 23 -4 90 3 82 -66 85 l-63 3 0 -121z m2344 -392 c-4 -85 1 -78
-59 -78 l-55 0 0 55 0 56 58 -3 c55 -3 57 -4 56 -30z m1046 -28 l0 -60 59 0
c33 0 62 -3 64 -7 3 -5 2 -28 -2 -53 l-6 -45 -55 0 c-60 0 -56 6 -59 -82 l-1
-33 -55 0 -55 0 0 170 0 170 55 0 55 0 0 -60z m246 5 l0 -55 -58 0 -58 0 0 55
0 55 58 0 57 0 1 -55z m-3056 -116 l0 -50 -52 3 -53 3 0 48 -1 47 53 0 53 0 0
-51z m3165 -1 l1 -48 -53 0 -53 0 0 51 0 50 52 -3 53 -3 0 -47z m-3045 -113
l0 -55 -55 0 -55 0 0 55 0 55 55 0 55 0 0 -55z m2930 0 l0 -55 -55 0 -55 0 0
39 c0 22 -3 46 -6 55 -5 14 3 16 55 16 l61 0 0 -55z m-3052 -117 l3 -48 -50 0
c-28 0 -51 3 -52 8 -1 4 -2 26 -4 50 l-2 43 51 -3 51 -3 3 -47z m242 2 l0 -50
-55 0 -55 0 0 50 0 50 55 0 55 0 0 -50z m350 -65 l0 -115 -55 0 -55 0 0 115 0
115 55 0 55 0 0 -115z m820 65 l0 -51 -112 3 -113 3 -3 48 -3 47 115 0 116 0
0 -50z m355 8 c1 -21 -1 -42 -5 -47 -3 -6 -30 -11 -60 -13 l-55 -3 -3 -122 -3
-123 -54 0 -55 0 0 60 0 60 -39 0 c-65 0 -71 6 -71 66 l0 54 55 0 55 0 0 55 0
56 117 -3 117 -3 1 -37z m815 -8 l0 -50 -55 0 -55 0 0 50 0 50 55 0 55 0 0
-50z m350 0 l0 -50 -55 0 -55 0 0 50 0 50 55 0 55 0 0 -50z m-2570 -120 l0
-59 58 -3 57 -3 0 -57 0 -58 -172 0 -173 0 0 60 0 60 60 0 60 0 0 60 0 60 55
0 55 0 0 -60z m1750 0 l0 -60 60 0 60 0 0 -115 0 -115 -60 0 -60 0 0 -60 0
-60 -55 0 -55 0 0 -55 0 -55 -60 0 -60 0 0 230 0 230 65 0 65 0 0 60 0 60 50
0 50 0 0 -60z m700 0 l0 -60 60 0 60 0 0 -60 0 -60 -115 0 -115 0 0 60 0 59
-57 3 -58 3 -2 58 -1 57 114 0 114 0 0 -60z m-236 -76 c3 -9 6 -36 6 -60 l0
-44 -55 0 -55 0 0 60 0 60 49 0 c35 0 51 -4 55 -16z m716 -44 l0 -60 -60 0
c-50 0 -60 -3 -61 -17 -2 -27 -6 -77 -8 -85 0 -4 -25 -8 -53 -10 l-53 -3 0
-60 0 -60 55 -5 55 -5 1 -40 c1 -22 2 -46 3 -52 1 -10 31 -13 116 -13 l115 0
0 -55 0 -55 -172 -2 -173 -3 -3 -52 -3 -53 -55 0 -54 0 0 170 0 170 -120 0
-120 0 0 55 0 55 120 0 120 0 0 55 0 55 60 0 60 0 0 65 0 65 115 0 115 0 0
-60z m-3170 -125 l0 -55 60 0 60 0 0 -110 0 -110 -60 0 -60 0 0 -180 0 -180
-60 0 -60 0 0 -55 0 -55 -55 0 -55 0 0 -60 0 -60 -115 0 -115 0 0 55 c0 30 5
56 10 56 6 1 29 2 53 3 l42 1 3 58 3 57 -56 0 -55 0 0 60 0 60 55 0 55 0 0 55
0 54 62 3 63 3 -1 228 -1 227 114 0 113 0 0 -55z m1290 0 l0 -55 115 0 115 0
0 -110 0 -110 -60 0 -60 0 0 -180 0 -180 -50 0 -49 0 -3 63 -3 62 -60 5 -60 5
1 35 c1 19 2 41 3 48 1 8 20 12 61 12 l60 0 0 120 0 120 -60 0 c-68 0 -62 -11
-62 115 0 113 -5 105 57 105 l55 0 0 -55z m351 45 c1 -5 2 -27 2 -47 l1 -38
-57 -3 -57 -3 0 51 0 50 55 0 c30 0 55 -4 56 -10z m694 -32 c-3 -65 0 -68 66
-68 l59 0 0 -55 0 -55 -115 0 -115 0 0 110 0 110 54 0 54 0 -3 -42z m-1745
-123 l0 -55 -60 0 -60 0 0 -55 0 -55 -110 0 -110 0 0 50 0 50 55 0 55 0 0 60
0 60 115 0 115 0 0 -55z m230 -180 l0 -115 55 0 55 0 0 -55 0 -55 65 0 65 0 0
-115 0 -115 -120 0 -120 0 0 -175 0 -175 -110 0 -110 0 0 50 0 50 55 0 55 0 0
410 0 410 55 0 55 0 0 -115z m1750 -55 l0 -170 60 0 60 0 0 -60 0 -60 -60 0
-60 0 0 -55 0 -55 -110 0 -110 0 0 230 0 230 54 0 c60 0 64 4 61 68 l-2 42 53
0 54 0 0 -170z m820 120 l0 -50 -50 0 -50 0 0 50 0 50 50 0 50 0 0 -50z
m-1748 -72 c9 -24 0 -201 -10 -207 -6 -3 -31 -5 -56 -3 l-46 4 0 109 0 109 54
0 c34 0 56 -5 58 -12z m-1172 -163 l0 -55 60 0 60 0 0 -60 0 -60 -60 0 -60 0
0 -115 0 -115 -110 0 -110 0 0 60 0 60 -120 0 -120 0 0 55 0 55 108 -1 c59 0
113 0 120 0 9 1 12 31 12 116 l0 115 110 0 110 0 0 -55z m1750 5 l0 -50 -55 0
-55 0 0 -120 0 -120 -55 0 -54 0 -3 118 -3 117 -52 3 -53 3 0 50 0 49 165 0
165 0 0 -50z m-340 -175 l0 -115 -60 0 -60 0 0 -125 0 -125 60 0 60 0 0 -110
0 -109 -117 -3 -118 -3 -1 -40 c-1 -22 -2 -46 -2 -52 -1 -9 -21 -13 -57 -13
l-55 0 2 163 3 162 58 3 57 3 0 174 0 175 24 6 c13 3 32 5 42 4 41 -5 44 -1
44 60 l0 60 60 0 60 0 0 -115z m1288 76 c2 -19 1 -44 -2 -57 -6 -23 -9 -24
-116 -24 l-110 0 0 60 0 61 113 -3 112 -3 3 -34z m-237 -98 c2 -19 1 -72 0
-85 -1 -5 -26 -8 -56 -8 l-55 0 0 55 0 55 55 0 c45 0 55 -3 56 -17z m349 -40
l0 -54 -52 3 -52 3 -1 39 c0 50 16 66 66 64 l39 -1 0 -54z m-3292 -62 c8 -1
12 -19 12 -56 l0 -55 -55 0 -55 0 0 54 c0 58 5 64 60 59 14 -1 31 -2 38 -2z
m1165 0 c15 -1 17 -14 17 -121 l0 -120 60 0 60 0 0 -230 0 -230 -55 0 -55 0
-1 38 c-1 20 -1 41 0 46 1 4 -1 17 -4 27 -5 16 -16 19 -61 19 l-54 0 0 55 0
55 -116 0 -115 0 3 53 3 52 113 3 112 3 0 173 c0 117 4 176 11 178 6 2 23 3
37 2 15 -1 35 -3 45 -3z m1067 -113 l0 -118 -110 0 -110 0 0 55 0 55 60 0 60
0 0 59 c0 58 1 60 28 63 77 9 72 17 72 -114z m-1997 -7 c14 -1 17 -11 17 -56
l0 -55 -60 0 -60 0 0 -55 0 -55 -60 0 -60 0 0 -65 0 -65 60 0 60 0 0 -55 0
-54 118 -3 117 -3 1 -100 c1 -55 2 -108 3 -117 1 -16 16 -18 176 -18 l175 0 0
120 0 120 55 0 55 0 0 -60 c0 -33 5 -61 10 -61 6 -1 29 -2 53 -3 l42 -1 5 -55
5 -55 51 -1 c28 -1 56 -4 63 -8 6 -4 11 -32 11 -62 l0 -54 55 0 55 0 0 -115 0
-115 60 0 60 0 0 -345 0 -345 -54 0 c-60 0 -65 6 -61 73 l3 37 -119 0 -119 0
0 60 0 60 -55 0 -55 0 0 55 0 55 -115 0 -114 0 -3 63 -3 62 -55 1 c-30 1 -58
2 -61 3 -3 1 -5 22 -4 49 l1 47 117 3 117 3 0 179 0 180 -120 0 -120 0 0 -174
0 -174 -72 -4 c-40 -2 -90 -2 -110 0 l-38 3 0 60 0 59 -120 0 -120 0 0 50 0
50 120 0 120 0 0 180 0 180 -125 0 -125 0 0 -55 0 -56 -57 3 -57 3 1 33 c1 17
2 68 2 112 l1 79 57 3 56 3 2 40 c3 61 -1 65 -66 65 l-59 0 0 -52 0 -53 -53 3
-54 4 0 109 1 109 58 0 58 0 0 55 0 55 60 0 60 0 0 59 c0 48 3 60 17 63 13 2
94 2 196 -1z m365 -53 l-3 -53 -52 -3 c-45 -3 -53 0 -54 15 -4 63 -4 79 -1 86
2 4 28 7 58 7 l55 0 -3 -52z m-818 -118 l0 -50 -60 0 -60 0 0 50 0 50 60 0 60
0 0 -50z m700 -5 l0 -55 60 0 60 0 0 -55 0 -55 -60 0 -60 0 0 -55 0 -55 -55 0
-55 0 0 165 0 165 55 0 55 0 0 -55z m1865 -52 l0 -108 -107 -3 -108 -3 0 56 0
55 55 0 55 0 0 55 0 55 53 0 53 0 -1 -107z m-1635 -173 l0 -50 -50 0 -50 0 0
50 0 50 50 0 50 0 0 -50z m1410 0 l0 -50 -55 0 -55 0 0 50 0 50 55 0 55 0 0
-50z m-118 -122 l3 -63 55 0 55 0 5 -55 5 -55 53 -3 52 -3 0 -55 0 -54 -55 0
-55 0 0 -120 0 -120 55 0 55 0 0 -60 0 -60 60 0 60 0 -3 -52 -3 -52 -109 -1
-110 0 -3 -62 -3 -63 -54 0 -55 0 0 180 0 180 -55 0 -55 0 0 55 0 55 -65 0
-65 0 0 -115 0 -114 -57 -3 -58 -3 0 -55 0 -55 58 -3 57 -3 0 -63 0 -63 43 0
c81 -1 77 2 77 -53 l0 -50 -60 0 -60 0 0 -60 0 -61 -112 3 -113 3 -3 343 -2
342 60 0 60 0 0 60 0 60 55 0 55 0 0 115 c0 85 3 115 13 117 6 0 28 2 47 3 75
4 70 0 70 65 l0 60 50 0 49 0 3 -62z m-2114 -236 l3 -62 59 0 60 0 0 -55 0
-55 -114 0 -114 0 0 48 c0 26 0 53 -1 60 -1 9 -31 12 -116 12 l-115 0 0 55 0
54 58 3 c31 2 107 3 167 2 l110 -1 3 -61z m3054 -117 l-4 -55 -54 0 -54 0 0
55 0 55 58 0 57 0 -3 -55z m-472 -230 l0 -55 -55 0 -55 0 0 55 0 55 55 0 55 0
0 -55z m471 40 c1 -8 1 -26 1 -40 0 -56 1 -55 -57 -55 l-55 0 0 55 0 55 55 0
c42 0 55 -4 56 -15z m-1411 -2615 l0 -60 60 0 60 0 1 -45 c1 -25 3 -49 4 -55
1 -5 3 -14 4 -20 0 -5 26 -10 56 -10 l55 0 0 -50 0 -50 -115 0 -115 0 0 55 0
55 -60 0 -60 0 0 120 0 120 55 0 55 0 0 -60z m-230 -240 l0 -50 -58 0 -58 0 2
43 c1 23 2 45 3 50 1 4 26 7 56 7 l55 0 0 -50z m-120 -115 l0 -55 -55 0 -55 0
0 55 0 55 55 0 55 0 0 -55z m230 0 l0 -55 -50 0 -50 0 0 55 0 55 50 0 50 0 0
-55z m-340 -115 l0 -50 -60 0 -60 0 0 50 0 50 60 0 60 0 0 -50z m458 -117 c-3
-57 -3 -57 -33 -56 -80 2 -75 -2 -75 58 l0 55 55 0 56 0 -3 -57z"/>
<path d="M1757 5201 c-22 -7 -26 -30 -18 -108 1 -10 31 -13 115 -13 l114 0 4
56 c1 31 -1 58 -6 62 -11 6 -190 9 -209 3z"/>
<path d="M3027 3896 c-2 -6 -3 -57 -3 -113 1 -85 -2 -103 -14 -104 -35 -2 -86
-6 -92 -8 -14 -2 -9 -219 4 -227 7 -4 32 -8 58 -8 l45 -1 0 -45 c0 -25 3 -50
7 -55 3 -6 30 -10 60 -9 l53 0 3 57 3 56 49 -2 c27 0 52 1 54 4 8 8 10 108 3
115 -3 4 -25 6 -49 6 -23 -1 -46 5 -50 11 -4 7 -8 85 -8 174 l0 163 -59 -1
c-35 -1 -61 -6 -64 -13z"/>
</g>
</svg>
