<?xml version="1.0" encoding="UTF-8" standalone="no"?>
<svg
   viewBox="0 0 38 38"
   width="38"
   height="38"
   version="1.1"
   id="svg6"
   sodipodi:docname="facebook.svg"
   inkscape:version="1.1 (c68e22c387, 2021-05-23)"
   xmlns:inkscape="http://www.inkscape.org/namespaces/inkscape"
   xmlns:sodipodi="http://sodipodi.sourceforge.net/DTD/sodipodi-0.dtd"
   xmlns="http://www.w3.org/2000/svg"
   xmlns:svg="http://www.w3.org/2000/svg">
  <defs
     id="defs10" />
  <sodipodi:namedview
     id="namedview8"
     pagecolor="#ffffff"
     bordercolor="#666666"
     borderopacity="1.0"
     inkscape:pageshadow="2"
     inkscape:pageopacity="0.0"
     inkscape:pagecheckerboard="0"
     showgrid="false"
     inkscape:zoom="16.916667"
     inkscape:cx="18.945813"
     inkscape:cy="18.945813"
     inkscape:window-width="2400"
     inkscape:window-height="1421"
     inkscape:window-x="2391"
     inkscape:window-y="-9"
     inkscape:window-maximized="1"
     inkscape:current-layer="svg6" />
  <path
     fill="#039be5"
     d="M 19,0 A 19,19 0 1 0 19,38 19,19 0 1 0 19,0 Z"
     id="path2" />
  <path
     fill="#ffffff"
     d="m 21.572,24.036 h 4.917 l 0.772,-4.995 h -5.69 v -2.73 c 0,-2.075 0.678,-3.915 2.619,-3.915 h 3.119 V 8.037 C 26.761,7.963 25.602,7.801 23.412,7.801 c -4.573,0 -7.254,2.415 -7.254,7.917 v 3.323 h -4.701 v 4.995 h 4.701 V 37.765 C 17.089,37.905 18.032,38 19,38 c 0.875,0 1.729,-0.08 2.572,-0.194 z"
     id="path4" />
</svg>
