<?xml version="1.0" encoding="UTF-8" standalone="no"?>
<svg
   viewBox="0 0 40 40"
   width="40"
   height="40"
   version="1.1"
   id="svg12"
   sodipodi:docname="github.svg"
   inkscape:version="1.1 (c68e22c387, 2021-05-23)"
   xmlns:inkscape="http://www.inkscape.org/namespaces/inkscape"
   xmlns:sodipodi="http://sodipodi.sourceforge.net/DTD/sodipodi-0.dtd"
   xmlns="http://www.w3.org/2000/svg"
   xmlns:svg="http://www.w3.org/2000/svg">
  <defs
     id="defs16" />
  <sodipodi:namedview
     id="namedview14"
     pagecolor="#ffffff"
     bordercolor="#666666"
     borderopacity="1.0"
     inkscape:pageshadow="2"
     inkscape:pageopacity="0.0"
     inkscape:pagecheckerboard="0"
     showgrid="false"
     inkscape:zoom="16.916667"
     inkscape:cx="19.950739"
     inkscape:cy="19.950739"
     inkscape:window-width="2400"
     inkscape:window-height="1421"
     inkscape:window-x="2391"
     inkscape:window-y="-9"
     inkscape:window-maximized="1"
     inkscape:current-layer="svg12" />
  <path
     fill="#ffffff"
     d="M 37,20 C 37,29.4 29.4,37 20,37 10.6,37 3,29.4 3,20 3,10.6 10.6,3 20,3 c 9.4,0 17,7.6 17,17 z"
     id="path2" />
  <path
     fill="#455a64"
     d="m 17,37 v -5.5 c 0,-0.3 0.2,-0.5 0.5,-0.5 0.3,0 0.5,0.2 0.5,0.5 V 37 h 2 v -6.5 c 0,-0.3 0.2,-0.5 0.5,-0.5 0.3,0 0.5,0.2 0.5,0.5 V 37 h 2 v -5.5 c 0,-0.3 0.2,-0.5 0.5,-0.5 0.3,0 0.5,0.2 0.5,0.5 V 37 h 1.8 C 26,36.7 26,36.4 26,35.9 V 32 c 0,-2.2 -1.9,-5.2 -4.3,-5.2 h -2.5 c -2.3,0 -4.3,3.1 -4.3,5.2 v 3.9 c 0,0.4 0.1,0.8 0.2,1.1 z M 36.1,22.4 c 0,0 0,0 0,0 0,0 -1.3,-0.4 -2.4,-0.4 0,0 -0.1,0 -0.1,0 -1.1,0 -2.9,0.3 -2.9,0.3 -0.1,0 -0.1,0 -0.1,-0.1 0,-0.1 0,-0.1 0.1,-0.1 0.1,0 2,-0.3 3.1,-0.3 1.1,0 2.4,0.4 2.5,0.4 0.1,0 0.1,0.1 0.1,0.2 -0.2,-0.1 -0.2,0 -0.3,0 z m -0.3,0.8 c 0,0 0,0 0,0 0,0 -1.4,-0.4 -2.6,-0.4 -0.9,0 -3,0.2 -3.1,0.2 -0.1,0 -0.1,0 -0.1,-0.1 0,-0.1 0,-0.1 0.1,-0.1 0.1,0 2.2,-0.2 3.1,-0.2 1.3,0 2.6,0.4 2.6,0.4 0.1,0 0.1,0.1 0.1,0.2 0,-0.1 0,0 -0.1,0 z m -32,-0.8 c -0.1,0 -0.1,0 -0.1,-0.1 0,-0.1 0,-0.1 0.1,-0.2 0.8,-0.2 2.4,-0.5 3.3,-0.5 0.8,0 3.5,0.2 3.6,0.2 0.1,0 0.1,0.1 0.1,0.1 0,0.1 -0.1,0.1 -0.1,0.1 0,0 -2.7,-0.2 -3.5,-0.2 -1.1,0.2 -2.6,0.4 -3.4,0.6 0,0 0,0 0,0 z m 0.4,1.5 c 0,0 -0.1,0 -0.1,-0.1 0,-0.1 0,-0.1 0,-0.2 0.1,0 1.4,-0.8 2.9,-1 1.3,-0.2 4,0.1 4.2,0.1 0.1,0 0.1,0.1 0.1,0.1 0,0.1 -0.1,0.1 -0.1,0.1 0,0 0,0 0,0 0,0 -2.8,-0.3 -4.1,-0.1 -1.5,0.3 -2.9,1.1 -2.9,1.1 0,0 0,0 0,0 z"
     id="path4" />
  <path
     fill="#455a64"
     d="m 10.2,19.5 c 0,-4.4 4.6,-8.5 10.3,-8.5 5.7,0 10.3,4 10.3,8.5 0,4.5 -3.3,7.5 -10.3,7.5 -7,0 -10.3,-3.1 -10.3,-7.5 z"
     id="path6" />
  <path
     fill="#455a64"
     d="m 24.6,12.3 c 0,0 1.7,-2.3 4.8,-2.3 1.2,1.2 0.4,4.8 0,5.8 z m -8.2,0 c 0,0 -1.7,-2.3 -4.8,-2.3 -1.2,1.2 -0.4,4.8 0,5.8 z m -0.3,19.6 c 0,0 -2.3,0 -2.8,0 -1.2,0 -2.3,-0.5 -2.8,-1.5 C 9.9,29.3 9.4,28.1 7.9,27.1 7.6,26.9 7.8,26.7 8.3,26.7 c 0.5,0.1 1.4,0.2 2.1,1.1 0.7,0.9 1.5,2 2.8,2 1.3,0 2.7,0 3.5,-0.9 z"
     id="path8" />
  <path
     fill="#00bcd4"
     d="M 20,0 C 9,0 0,9 0,20 0,31 9,40 20,40 31,40 40,31 40,20 40,9 31,0 20,0 Z m 0,36 C 11.2,36 4,28.8 4,20 4,11.2 11.2,4 20,4 c 8.8,0 16,7.2 16,16 0,8.8 -7.2,16 -16,16 z"
     id="path10" />
</svg>
