<?xml version="1.0" encoding="UTF-8" standalone="no"?>
<svg
   viewBox="0 0 36 36"
   width="36"
   height="36"
   version="1.1"
   id="svg44"
   sodipodi:docname="instagram.svg"
   inkscape:version="1.1 (c68e22c387, 2021-05-23)"
   xmlns:inkscape="http://www.inkscape.org/namespaces/inkscape"
   xmlns:sodipodi="http://sodipodi.sourceforge.net/DTD/sodipodi-0.dtd"
   xmlns="http://www.w3.org/2000/svg"
   xmlns:svg="http://www.w3.org/2000/svg">
  <defs
     id="defs48" />
  <sodipodi:namedview
     id="namedview46"
     pagecolor="#ffffff"
     bordercolor="#666666"
     borderopacity="1.0"
     inkscape:pageshadow="2"
     inkscape:pageopacity="0.0"
     inkscape:pagecheckerboard="0"
     showgrid="false"
     inkscape:zoom="16.916667"
     inkscape:cx="17.940887"
     inkscape:cy="17.940887"
     inkscape:window-width="2400"
     inkscape:window-height="1421"
     inkscape:window-x="2391"
     inkscape:window-y="-9"
     inkscape:window-maximized="1"
     inkscape:current-layer="svg44" />
  <path
     fill="#304ffe"
     d="m 35.67,7.48 c -0.4,0.26 -0.97,0.5 -1.21,0.77 -0.09,0.09 -0.14,0.19 -0.12,0.29 v 1.03 l -0.3,1.01 -0.3,1 -0.33,1.1 -0.68,2.25 -0.66,2.22 -0.5,1.67 c 0,0.26 -0.01,0.52 -0.03,0.77 -0.07,0.96 -0.27,1.88 -0.59,2.74 -0.19,0.53 -0.42,1.04 -0.7,1.52 -0.1,0.19 -0.22,0.38 -0.34,0.56 -0.4,0.63 -0.88,1.21 -1.41,1.72 -0.41,0.41 -0.86,0.79 -1.35,1.11 0,0 0,0 -0.01,0 -0.08,0.07 -0.17,0.13 -0.27,0.18 -0.31,0.21 -0.64,0.39 -0.98,0.55 -0.23,0.12 -0.46,0.22 -0.7,0.31 -0.05,0.03 -0.11,0.05 -0.16,0.07 -0.57,0.27 -1.23,0.45 -1.89,0.54 -0.04,0.01 -0.07,0.01 -0.11,0.02 -0.4,0.07 -0.79,0.13 -1.19,0.16 -0.18,0.02 -0.37,0.03 -0.55,0.03 l -0.71,-0.04 -3.42,-0.18 c 0,-0.01 -0.01,0 -0.01,0 l -1.72,-0.09 c -0.13,0 -0.27,0 -0.4,-0.01 -0.54,-0.02 -1.06,-0.08 -1.58,-0.19 -0.01,0 -0.01,0 -0.01,0 -0.95,-0.18 -1.86,-0.5 -2.71,-0.93 C 10.26,27.42 9.8,27.15 9.37,26.84 9.19,26.71 9.02,26.57 8.85,26.42 8.37,26.02 7.94,25.59 7.54,25.15 7.48,25.09 7.43,25.03 7.38,24.97 7.32,24.91 7.26,24.84 7.21,24.78 6.83,24.3 6.51,23.81 6.25,23.29 6.01,22.83 5.82,22.34 5.67,21.8 5.61,21.61 5.56,21.43 5.52,21.23 5.51,21.22 5.5,21.2 5.5,21.18 5.4,20.77 5.31,20.34 5.26,19.91 5.2,19.58 5.17,19.25 5.17,18.91 5.15,18.78 5.15,18.64 5.15,18.51 l 1.91,-2.95 1.87,-2.88 0.85,-1.31 0.77,-1.18 0.26,-0.41 V 8.75 C 10.83,8.52 10.84,8.28 10.83,8.06 10.82,7.36 10.68,6.68 10.45,6.03 10.23,5.34 9.92,4.69 9.6,4.09 9.22,3.4 8.82,2.78 8.49,2.22 8,1.4 7.66,0.73 7.75,0.26 8.47,0.09 9.23,0 10,0 h 16 c 4.18,0 7.78,2.6 9.27,6.26 0.16,0.39 0.3,0.8 0.4,1.22 z"
     id="path2" />
  <path
     fill="#4928f4"
     d="m 36,10 v 0.27 l -1.38,0.8 -0.88,0.51 -0.97,0.56 -1.94,1.13 -1.9,1.1 -1.94,1.12 -0.77,0.45 c 0,0.48 -0.12,0.92 -0.34,1.32 -0.31,0.58 -0.83,1.06 -1.49,1.47 -0.67,0.41 -1.49,0.74 -2.41,0.98 0,0 0,-0.01 -0.01,0 -3.56,0.92 -8.42,0.5 -10.78,-1.26 C 10.53,17.96 10.07,17.36 9.87,16.67 9.81,16.44 9.78,16.19 9.78,15.94 V 8.75 C 9.79,8.6 9.69,8.45 9.51,8.3 8.97,7.87 7.7,7.46 6.28,7.05 5.17,6.74 3.98,6.43 2.98,6.13 2.19,5.89 1.52,5.65 1.12,5.42 1.3,5.07 1.51,4.72 1.73,4.39 3.13,2.34 5.27,0.83 7.75,0.26 8.47,0.09 9.23,0 10,0 h 10.8 c 5.37,0.94 10.32,3.13 14.47,6.26 0.16,0.39 0.3,0.8 0.4,1.22 0.18,0.66 0.29,1.34 0.32,2.05 C 36,9.68 36,9.84 36,10 Z"
     id="path4" />
  <path
     fill="#6200ea"
     d="m 36,10 v 4.41 l -0.22,0.68 -0.75,2.33 -0.78,2.4 -0.41,1.28 -0.38,1.19 -0.37,1.13 -0.36,1.12 -0.19,0.59 -0.25,0.78 c 0,0.76 -0.02,1.43 -0.07,2 -0.01,0.06 -0.02,0.12 -0.02,0.18 -0.06,0.53 -0.14,0.98 -0.27,1.36 -0.01,0.06 -0.03,0.12 -0.05,0.17 -0.26,0.72 -0.65,1.18 -1.23,1.48 -0.14,0.08 -0.3,0.14 -0.47,0.2 -0.53,0.18 -1.2,0.27 -2.02,0.32 -0.6,0.04 -1.29,0.05 -2.07,0.05 H 25.4 L 24.21,31.62 24,31.61 21.83,31.52 19.63,31.43 12.38,31.13 10.5,31.05 H 10.24 C 9.46,31.04 8.79,30.99 8.21,30.91 7.37,30.78 6.72,30.56 6.23,30.23 5.53,29.78 5.12,29.12 4.88,28.2 4.82,27.98 4.77,27.75 4.74,27.5 c -0.1,-0.58 -0.15,-1.25 -0.18,-2 0,-0.15 0,-0.3 -0.01,-0.46 -0.01,-0.01 0,-0.01 0,-0.01 V 24.45 C 4.54,24.16 4.54,23.86 4.54,23.55 L 4.59,21.94 4.62,20.79 4.66,19.45 V 19.26 L 4.73,16.8 4.8,14.34 4.87,12.03 4.93,9.76 4.95,9.16 C 4.95,8.85 3.9,8.67 2.73,8.52 1.8,8.4 0.78,8.29 0.17,8.15 0.22,7.92 0.27,7.69 0.33,7.47 0.51,6.75 0.78,6.07 1.12,5.42 1.3,5.07 1.51,4.72 1.73,4.39 3.89,3.44 6.14,2.7 8.49,2.22 10.55,1.79 12.7,1.56 14.92,1.56 c 7.36,0 14.16,2.49 19.54,6.69 0.52,0.4 1.03,0.83 1.53,1.28 C 36,9.68 36,9.84 36,10 Z"
     id="path6" />
  <path
     fill="#673ab7"
     d="m 36,12.37 v 4.54 l -0.55,1.06 -1.05,2.05 -0.56,1.08 -0.51,0.99 -0.22,0.43 c 0,0.31 0,0.61 -0.02,0.9 0,0.43 -0.02,0.84 -0.05,1.22 -0.04,0.45 -0.1,0.86 -0.16,1.24 -0.15,0.79 -0.36,1.47 -0.66,2.03 -0.04,0.07 -0.08,0.14 -0.12,0.2 -0.11,0.18 -0.24,0.35 -0.38,0.51 -0.18,0.22 -0.38,0.41 -0.61,0.57 -0.34,0.26 -0.74,0.47 -1.2,0.63 -0.57,0.21 -1.23,0.35 -2.01,0.43 -0.51,0.05 -1.07,0.08 -1.68,0.08 l -0.42,0.02 -2.08,0.12 h -0.01 l -2.21,0.13 -2.25,0.13 -3.1,0.18 -3.77,0.22 -0.55,0.03 c -0.51,0 -0.99,-0.03 -1.45,-0.09 C 10.33,31.06 10.29,31.05 10.24,31.05 9.56,30.94 8.94,30.76 8.38,30.51 7.7,30.21 7.11,29.81 6.61,29.33 6.17,28.9 5.79,28.41 5.48,27.86 5.41,27.73 5.34,27.61 5.28,27.47 4.98,26.88 4.74,26.22 4.56,25.5 4.53,25.38 4.5,25.25 4.48,25.12 4.42,24.89 4.37,24.65 4.34,24.4 4.23,23.76 4.17,23.08 4.14,22.37 V 22.36 C 4.13,22.07 4.12,21.79 4.12,21.49 L 3.63,20.32 3.56,20.14 3.5,19.99 2.75,18.2 2.63,17.91 1.91,16.18 1.11,14.25 c 0,0 0,0 -0.01,0 L 0.29,12.3 0,11.59 V 10 C 0,9.37 0.06,8.75 0.17,8.15 0.22,7.92 0.27,7.69 0.33,7.47 1.18,6.98 2.07,6.53 2.98,6.13 5.06,5.2 7.29,4.51 9.6,4.09 c 1.72,-0.31 3.51,-0.48 5.32,-0.48 7.31,0 13.94,2.65 19.12,6.97 0.2,0.16 0.39,0.32 0.58,0.49 0.47,0.41 0.93,0.84 1.38,1.3 z"
     id="path8" />
  <path
     fill="#8e24aa"
     d="m 36,15.35 v 5.14 l -0.57,1.19 -1.08,2.25 -0.01,0.03 c 0,0.43 -0.02,0.82 -0.05,1.17 -0.1,1.15 -0.38,1.88 -0.84,2.33 -0.33,0.34 -0.74,0.53 -1.25,0.63 -0.03,0.01 -0.07,0.01 -0.1,0.02 -0.16,0.03 -0.33,0.05 -0.51,0.05 -0.62,0.06 -1.35,0.02 -2.19,-0.04 -0.09,0 -0.19,-0.01 -0.29,-0.02 -0.61,-0.04 -1.26,-0.08 -1.98,-0.11 -0.39,-0.01 -0.8,-0.02 -1.22,-0.02 h -0.02 l -1.01,0.08 h -0.01 l -2.27,0.16 -2.59,0.2 -0.38,0.03 -3.03,0.22 -1.57,0.12 -1.55,0.11 c -0.27,0 -0.53,0 -0.79,-0.01 0,0 -0.01,-0.01 -0.01,0 C 11.55,28.86 10.54,28.79 9.64,28.62 8.81,28.48 8.08,28.26 7.46,27.93 6.82,27.62 6.29,27.18 5.86,26.62 5.45,26.07 5.15,25.38 4.96,24.55 c 0,-0.01 0,-0.01 0,-0.01 C 4.82,23.87 4.74,23.09 4.74,22.21 L 4.59,21.94 3.7,20.35 3.57,20.13 3.5,19.99 2.57,18.34 2.11,17.51 1.53,16.48 0.53,14.69 0,13.75 V 10.07 C 0.88,9.49 1.79,8.98 2.73,8.52 3.87,7.94 5.05,7.45 6.28,7.05 7.62,6.61 9.02,6.26 10.45,6.03 11.9,5.79 13.39,5.67 14.92,5.67 c 6.8,0 13.04,2.43 17.85,6.47 0.22,0.17 0.43,0.36 0.64,0.54 0.84,0.75 1.64,1.56 2.37,2.41 0.08,0.09 0.16,0.17 0.22,0.26 z"
     id="path10" />
  <path
     fill="#c2185b"
     d="m 36,18.71 v 7.23 C 35.76,25.8 35.43,25.63 35.02,25.45 34.8,25.34 34.55,25.23 34.29,25.13 33.91,24.96 33.5,24.8 33.04,24.64 32.94,24.6 32.84,24.57 32.73,24.54 32.55,24.47 32.36,24.41 32.17,24.35 31.58,24.17 30.93,24 30.25,23.85 29.99,23.8 29.72,23.75 29.45,23.71 28.58,23.56 27.65,23.47 26.68,23.46 26.6,23.45 26.51,23.45 26.43,23.45 l -2.57,0.02 -3.5,0.02 h -0.01 l -7.49,0.06 c -2.38,0 -3.84,0.57 -4.72,0.8 0,0 -0.01,0 -0.01,0.01 C 7.2,24.6 6.91,24.45 6.83,22.82 6.81,22.37 6.8,21.79 6.8,21.08 L 6.24,20.65 5.26,19.91 4.66,19.45 4.54,19.36 2.88,18.1 2.63,17.91 2.11,17.51 1.15,16.79 0,15.91 v -3.4 c 0.1,-0.08 0.19,-0.15 0.29,-0.21 1.45,-1 3,-1.85 4.64,-2.54 1.46,-0.62 3,-1.11 4.58,-1.46 0.43,-0.09 0.87,-0.18 1.32,-0.24 1.33,-0.23 2.7,-0.34 4.09,-0.34 6.01,0 11.53,2.09 15.91,5.55 0.66,0.52 1.3,1.07 1.9,1.66 0.82,0.78 1.59,1.61 2.3,2.49 0.14,0.18 0.28,0.36 0.42,0.55 0.19,0.24 0.37,0.49 0.55,0.74 z"
     id="path12" />
  <path
     fill="#d81b60"
     d="M 36,22.72 V 26 c 0,0.65 -0.06,1.29 -0.18,1.91 -0.18,0.92 -0.49,1.8 -0.91,2.62 -0.22,0.05 -0.47,0.05 -0.75,0.01 -0.63,-0.11 -1.37,-0.44 -2.17,-0.87 -0.04,-0.01 -0.08,-0.03 -0.11,-0.05 -0.25,-0.13 -0.51,-0.27 -0.77,-0.43 -0.53,-0.29 -1.09,-0.61 -1.65,-0.91 -0.12,-0.06 -0.24,-0.12 -0.35,-0.18 -0.64,-0.33 -1.3,-0.63 -1.96,-0.86 0,0 0,0 -0.01,0 C 27,27.19 26.85,27.14 26.7,27.1 26.13,26.94 25.55,26.84 24.99,26.84 l -1.1,-0.32 -4.87,-1.41 c 0,0 0,0 -0.01,0 l -2.99,-0.87 h -0.01 l -1.3,-0.38 c -3.76,0 -6.07,1.6 -7.19,0.99 C 7.08,24.62 6.82,24.04 6.73,22.9 6.7,22.58 6.69,22.22 6.69,21.8 L 5.52,21.23 5.47,21.21 H 5.46 L 4.62,20.79 3.7,20.35 3.63,20.32 3.46,20.23 1.5,19.28 0,18.55 v -3.43 c 0.17,-0.15 0.35,-0.29 0.53,-0.43 0.19,-0.15 0.38,-0.29 0.57,-0.44 0.01,0 0.01,0 0.01,0 1.18,-0.85 2.43,-1.6 3.76,-2.22 1.55,-0.74 3.2,-1.31 4.91,-1.68 0.25,-0.06 0.51,-0.12 0.77,-0.16 1.42,-0.27 2.88,-0.41 4.37,-0.41 5.27,0 10.11,1.71 14.01,4.59 1.13,0.84 2.18,1.77 3.14,2.78 0.79,0.83 1.52,1.73 2.18,2.67 0.05,0.07 0.1,0.14 0.15,0.2 0.37,0.54 0.71,1.09 1.03,1.66 0.21,0.34 0.39,0.69 0.57,1.04 z"
     id="path14" />
  <path
     fill="#f50057"
     d="m 35.82,27.91 c -0.18,0.92 -0.49,1.8 -0.91,2.62 -0.19,0.37 -0.4,0.72 -0.63,1.06 -0.14,0.21 -0.29,0.41 -0.44,0.6 -0.36,-0.14 -0.89,-0.34 -1.54,-0.56 0,0 0,0 0,-0.01 -0.49,-0.17 -1.05,-0.35 -1.65,-0.52 -0.17,-0.05 -0.34,-0.1 -0.52,-0.15 -0.71,-0.19 -1.45,-0.36 -2.17,-0.46 -0.6,-0.1 -1.19,-0.16 -1.74,-0.16 L 25.76,30.2 H 25.75 L 23.33,29.5 21.84,29.07 20.18,28.59 H 20.17 L 19.63,28.44 13.1,26.56 11.22,26.02 9.82,25.69 7.54,25.15 7.26,25.08 c 0,0 0,0 -0.01,0 L 4.96,24.55 c 0,-0.01 0,-0.01 0,-0.01 L 4.55,24.45 4.34,24.4 2.67,24.01 2.48,23.96 1.06,22.79 0,21.9 v -4.08 c 0.37,-0.36 0.75,-0.7 1.15,-1.03 0.12,-0.11 0.25,-0.21 0.38,-0.31 0.12,-0.1 0.25,-0.2 0.38,-0.3 0.91,-0.69 1.87,-1.31 2.89,-1.84 1.3,-0.7 2.68,-1.26 4.13,-1.66 0.28,-0.09 0.56,-0.17 0.85,-0.23 1.64,-0.41 3.36,-0.62 5.14,-0.62 4.47,0 8.63,1.35 12.07,3.66 1.71,1.15 3.25,2.53 4.55,4.1 0.66,0.79 1.26,1.62 1.79,2.5 0.05,0.07 0.09,0.13 0.13,0.2 0.32,0.53 0.62,1.08 0.89,1.64 0.25,0.5 0.47,1 0.67,1.52 0.32,0.8 0.58,1.62 0.8,2.46 z"
     id="path16" />
  <path
     fill="#ff1744"
     d="m 34.28,31.59 c -0.14,0.21 -0.29,0.41 -0.44,0.6 -0.44,0.55 -0.92,1.05 -1.46,1.49 -0.47,0.39 -0.97,0.74 -1.5,1.04 -0.2,-0.05 -0.4,-0.11 -0.61,-0.19 -0.66,-0.23 -1.35,-0.61 -1.99,-1.01 -0.96,-0.61 -1.79,-1.27 -2.16,-1.57 -0.14,-0.12 -0.21,-0.18 -0.21,-0.18 L 24.21,31.62 24,31.6 21.8,31.41 19.52,31.21 16.15,30.91 10.81,30.44 10.79,30.43 8.91,29.52 7.01,28.6 5.48,27.86 5.15,27.7 4.74,27.5 3.32,26.81 1.43,25.9 0.84,25.61 0,25.35 v -4.47 c 0.47,-0.56 0.97,-1.09 1.5,-1.6 0.34,-0.32 0.7,-0.64 1.07,-0.94 0.06,-0.05 0.12,-0.1 0.18,-0.14 0.04,-0.05 0.09,-0.08 0.13,-0.1 0.59,-0.48 1.21,-0.91 1.85,-1.3 0.74,-0.47 1.52,-0.89 2.33,-1.24 0.87,-0.39 1.78,-0.72 2.72,-0.97 1.63,-0.46 3.36,-0.7 5.14,-0.7 4.08,0 7.85,1.24 10.96,3.37 1.99,1.36 3.71,3.08 5.07,5.07 0.45,0.64 0.85,1.32 1.22,2.02 0.13,0.26 0.26,0.52 0.37,0.78 0.12,0.25 0.23,0.5 0.34,0.75 0.21,0.52 0.4,1.04 0.57,1.58 0.32,1 0.56,2.02 0.71,3.08 0.05,0.35 0.09,0.7 0.12,1.05 z"
     id="path18" />
  <path
     fill="#ff5722"
     d="m 32.39,33.42 c 0,0.08 0,0.17 -0.01,0.26 -0.47,0.39 -0.97,0.74 -1.5,1.04 -0.22,0.12 -0.44,0.24 -0.67,0.34 -0.23,0.11 -0.46,0.21 -0.7,0.3 -0.34,-0.18 -0.8,-0.4 -1.29,-0.61 -0.69,-0.31 -1.44,-0.59 -2.02,-0.68 -0.14,-0.03 -0.27,-0.04 -0.39,-0.04 l -1.64,-0.21 h -0.02 l -2.04,-0.27 -2.06,-0.27 -0.96,-0.12 -7.56,-0.98 c -0.49,0 -1.01,-0.03 -1.55,-0.1 C 9.32,32.02 8.63,31.92 7.94,31.78 7.26,31.66 6.57,31.5 5.91,31.33 5.22,31.17 4.54,30.98 3.91,30.8 3.18,30.58 2.5,30.37 1.93,30.18 1.46,30.03 1.06,29.89 0.75,29.78 0.57,29.35 0.42,28.9 0.31,28.44 0.1,27.66 0,26.84 0,26 v -1.67 c 0.32,-0.53 0.67,-1.05 1.06,-1.54 0.71,-0.94 1.52,-1.8 2.4,-2.56 0.03,-0.04 0.07,-0.07 0.1,-0.09 l 0.01,-0.01 c 0.31,-0.28 0.63,-0.53 0.97,-0.77 0.04,-0.04 0.08,-0.07 0.12,-0.1 0.16,-0.12 0.33,-0.24 0.51,-0.35 1.43,-0.97 3.01,-1.73 4.7,-2.24 1.6,-0.48 3.29,-0.73 5.05,-0.73 3.49,0 6.75,1.03 9.47,2.79 2.01,1.29 3.74,2.99 5.06,4.98 0.16,0.23 0.31,0.46 0.46,0.7 0.69,1.17 1.26,2.43 1.68,3.75 0.05,0.15 0.09,0.3 0.13,0.46 0.08,0.27 0.15,0.55 0.21,0.83 0.02,0.07 0.04,0.14 0.06,0.22 0.14,0.63 0.24,1.29 0.31,1.95 0,0.01 0,0.01 0,0.01 0.06,0.59 0.09,1.19 0.09,1.79 z"
     id="path20" />
  <path
     fill="#ff6f00"
     d="m 30.33,33.42 c 0,0.35 -0.02,0.73 -0.06,1.11 -0.02,0.18 -0.04,0.36 -0.06,0.53 -0.23,0.11 -0.46,0.21 -0.7,0.3 -0.45,0.17 -0.91,0.31 -1.38,0.41 -0.32,0.07 -0.65,0.13 -0.98,0.16 h -0.01 c -0.31,-0.19 -0.67,-0.42 -1.04,-0.68 -0.67,-0.47 -1.37,-1 -1.93,-1.43 -0.01,-0.01 -0.01,-0.01 -0.02,-0.02 -0.59,-0.45 -1.01,-0.79 -1.01,-0.79 l -1.06,0.04 -2.04,0.07 -0.95,0.04 -3.82,0.14 -3.23,0.12 c -0.21,0.01 -0.46,0.01 -0.77,0 H 11.26 C 10.84,33.41 10.34,33.38 9.79,33.33 9.15,33.28 8.45,33.22 7.74,33.15 7.05,33.07 6.35,32.99 5.68,32.91 4.94,32.83 4.24,32.74 3.64,32.66 3.17,32.6 2.76,32.55 2.43,32.51 2.15,32.19 1.9,31.86 1.66,31.5 1.3,30.96 0.99,30.39 0.75,29.78 0.57,29.35 0.42,28.9 0.31,28.44 0.6,27.55 0.98,26.71 1.43,25.9 1.79,25.24 2.21,24.61 2.67,24.01 3.12,23.42 3.61,22.87 4.14,22.37 v -0.01 c 0.15,-0.15 0.3,-0.29 0.45,-0.42 0.28,-0.26 0.57,-0.5 0.87,-0.73 h 0.01 c 0.01,-0.02 0.02,-0.02 0.03,-0.03 0.24,-0.19 0.49,-0.36 0.74,-0.53 1.48,-1.01 3.15,-1.76 4.95,-2.2 1.19,-0.29 2.44,-0.45 3.73,-0.45 2.54,0 4.94,0.61 7.05,1.71 h 0.01 c 1.81,0.93 3.41,2.21 4.7,3.75 0.71,0.82 1.32,1.72 1.82,2.67 0.35,0.64 0.65,1.31 0.9,1.99 0.02,0.06 0.04,0.11 0.06,0.16 0.17,0.5 0.32,1.02 0.45,1.54 0.09,0.37 0.16,0.75 0.22,1.13 0.02,0.12 0.04,0.23 0.05,0.35 0.1,0.69 0.15,1.4 0.15,2.12 z"
     id="path22" />
  <path
     fill="#ff9800"
     d="m 28.28,33.42 v 0.1 c 0,0.34 -0.03,0.77 -0.06,1.23 -0.03,0.34 -0.06,0.69 -0.09,1.02 -0.32,0.07 -0.65,0.13 -0.98,0.16 H 27.14 C 26.76,35.98 26.39,36 26,36 h -1.75 l -0.38,-0.11 -1.97,-0.6 -2,-0.6 -4.63,-1.39 -2,-0.6 c 0,0 -0.83,0.33 -2,0.72 H 11.26 C 10.81,33.57 10.32,33.73 9.8,33.89 9.15,34.08 8.46,34.27 7.78,34.42 7.08,34.58 6.39,34.7 5.77,34.75 5.58,34.77 5.39,34.78 5.22,34.78 4.66,34.47 4.12,34.1 3.63,33.69 3.2,33.33 2.8,32.94 2.43,32.51 2.15,32.19 1.9,31.86 1.66,31.5 c 0.07,-0.45 0.15,-0.89 0.27,-1.32 0.3,-1.19 0.77,-2.33 1.39,-3.37 0.34,-0.59 0.72,-1.16 1.16,-1.69 0.01,-0.03 0.04,-0.06 0.07,-0.08 -0.01,-0.01 0,-0.01 0,-0.01 0.13,-0.17 0.27,-0.33 0.41,-0.48 0,-0.01 0,-0.01 0,-0.01 0.41,-0.44 0.83,-0.86 1.29,-1.25 0.16,-0.13 0.31,-0.26 0.48,-0.39 0.03,-0.03 0.06,-0.05 0.1,-0.08 2.25,-1.72 5.06,-2.76 8.09,-2.76 3.44,0 6.57,1.29 8.94,3.41 1.14,1.03 2.11,2.26 2.84,3.63 0.06,0.1 0.12,0.21 0.17,0.32 0.09,0.18 0.18,0.37 0.26,0.57 0.33,0.72 0.59,1.48 0.77,2.26 0.02,0.08 0.04,0.16 0.06,0.24 0.08,0.37 0.15,0.75 0.2,1.13 0.08,0.59 0.12,1.19 0.12,1.8 z"
     id="path24" />
  <path
     fill="#ffc107"
     d="m 26.22,33.42 c 0,0.2 -0.01,0.42 -0.02,0.65 -0.02,0.37 -0.05,0.77 -0.1,1.18 -0.02,0.25 -0.06,0.5 -0.1,0.75 h -5.48 l -1.06,-0.17 -4.14,-0.66 -0.59,-0.09 -1.35,-0.22 c -0.59,0 -1.87,0.26 -3.22,0.51 C 9.45,35.5 8.73,35.64 8.08,35.73 8,35.74 7.92,35.75 7.85,35.76 H 7.84 C 7.14,35.61 6.46,35.38 5.82,35.08 5.62,34.99 5.42,34.89 5.22,34.78 4.66,34.47 4.12,34.1 3.63,33.69 3.62,33.57 3.61,33.47 3.61,33.42 c 0,-0.26 0.01,-0.51 0.03,-0.76 0.04,-0.64 0.13,-1.26 0.27,-1.86 0.22,-0.91 0.54,-1.79 0.97,-2.6 0.08,-0.17 0.17,-0.34 0.27,-0.5 0.04,-0.08 0.09,-0.15 0.13,-0.23 0.18,-0.29 0.38,-0.57 0.58,-0.85 0.42,-0.55 0.89,-1.07 1.39,-1.54 0.01,0 0.01,0 0.01,0 0.04,-0.04 0.08,-0.08 0.12,-0.11 0.05,-0.04 0.09,-0.09 0.14,-0.12 0.2,-0.18 0.4,-0.34 0.61,-0.49 0,-0.01 0.01,-0.01 0.01,-0.01 1.89,-1.41 4.23,-2.24 6.78,-2.24 1.98,0 3.82,0.5 5.43,1.38 h 0.01 c 1.38,0.76 2.58,1.79 3.53,3.03 0.37,0.48 0.7,0.99 0.98,1.53 h 0.01 c 0.05,0.1 0.1,0.2 0.15,0.3 0.3,0.59 0.54,1.21 0.72,1.85 h 0.01 c 0.01,0.05 0.03,0.1 0.04,0.15 0.12,0.43 0.22,0.87 0.29,1.32 0.01,0.09 0.02,0.19 0.03,0.28 0.07,0.48 0.1,0.97 0.1,1.47 z"
     id="path26" />
  <path
     fill="#ffd54f"
     d="m 24.17,33.31 c 0,0.16 0,0.33 -0.02,0.49 v 0.01 c 0,0.01 0,0.01 0,0.01 -0.02,0.72 -0.12,1.43 -0.28,2.07 0,0.04 -0.01,0.07 -0.03,0.11 H 19.17 L 15.32,35.17 14.81,35.06 14.73,35.08 10.46,35.96 10.27,36 H 10 C 9.36,36 8.73,35.94 8.12,35.82 8.03,35.8 7.94,35.78 7.85,35.76 H 7.84 C 7.14,35.61 6.46,35.38 5.82,35.08 5.8,34.97 5.78,34.86 5.77,34.75 5.7,34.32 5.67,33.87 5.67,33.42 c 0,-0.17 0,-0.34 0.01,-0.51 0.03,-0.54 0.11,-1.07 0.23,-1.58 0.08,-0.38 0.19,-0.75 0.32,-1.1 0.11,-0.31 0.24,-0.61 0.38,-0.9 0.12,-0.25 0.26,-0.49 0.4,-0.73 0.14,-0.23 0.29,-0.45 0.45,-0.67 0.4,-0.55 0.87,-1.06 1.39,-1.51 0.3,-0.26 0.63,-0.51 0.97,-0.73 1.46,-0.96 3.21,-1.52 5.1,-1.52 0.37,0 0.73,0.02 1.08,0.07 h 0.02 c 1.07,0.12 2.07,0.42 2.99,0.87 0.01,0 0.01,0 0.01,0 1.45,0.71 2.68,1.78 3.58,3.1 0.15,0.22 0.3,0.46 0.43,0.7 0.11,0.19 0.21,0.39 0.3,0.59 0.14,0.31 0.27,0.64 0.38,0.97 h 0.01 c 0.11,0.37 0.21,0.74 0.28,1.13 v 0.01 c 0.11,0.55 0.17,1.12 0.17,1.7 z"
     id="path28" />
  <path
     fill="#ffe082"
     d="m 22.11,33.52 v 0.03 c 0,0.59 -0.07,1.17 -0.21,1.74 -0.05,0.24 -0.12,0.48 -0.21,0.71 H 17.21 L 14.92,35.37 12.63,36 H 10 C 9.36,36 8.73,35.94 8.12,35.82 8.1,35.79 8.09,35.76 8.08,35.73 7.94,35.3 7.83,34.87 7.78,34.42 7.74,34.13 7.72,33.83 7.72,33.52 c 0,-0.12 0,-0.25 0.02,-0.37 0.01,-0.47 0.08,-0.93 0.2,-1.37 0.06,-0.3 0.15,-0.59 0.27,-0.87 0.04,-0.14 0.1,-0.27 0.17,-0.4 0.15,-0.34 0.33,-0.67 0.53,-0.99 0.22,-0.32 0.46,-0.62 0.73,-0.9 0.32,-0.36 0.68,-0.69 1.09,-0.96 0.7,-0.51 1.5,-0.89 2.37,-1.1 0.58,-0.16 1.19,-0.24 1.82,-0.24 2,0 3.79,0.8 5.09,2.09 0.05,0.05 0.11,0.11 0.16,0.18 h 0.01 c 0.14,0.15 0.27,0.3 0.4,0.47 0.37,0.47 0.68,0.98 0.92,1.54 0.12,0.26 0.22,0.53 0.3,0.81 0.01,0.04 0.02,0.07 0.03,0.11 0.14,0.49 0.23,1 0.25,1.53 0.02,0.15 0.03,0.31 0.03,0.47 z"
     id="path30" />
  <path
     fill="#ffecb3"
     d="m 20.06,33.52 c 0,0.41 -0.05,0.8 -0.16,1.17 -0.1,0.4 -0.25,0.78 -0.44,1.14 -0.03,0.06 -0.1,0.17 -0.1,0.17 H 10.48 C 10.47,35.99 10.46,35.97 10.46,35.96 10.34,35.77 10.24,35.58 10.16,35.37 9.96,34.91 9.84,34.41 9.8,33.89 9.78,33.77 9.78,33.64 9.78,33.52 c 0,-0.06 0,-0.13 0.01,-0.19 0.01,-0.44 0.07,-0.86 0.19,-1.25 0.1,-0.36 0.23,-0.69 0.4,-1.01 0,0 0.01,-0.01 0.01,-0.02 0.12,-0.21 0.25,-0.42 0.4,-0.62 0.49,-0.66 1.14,-1.2 1.89,-1.55 0.01,0 0.01,0 0.01,0 0.24,-0.12 0.49,-0.22 0.75,-0.29 0,0 0,0 0.01,0 0.46,-0.14 0.96,-0.21 1.47,-0.21 0.59,0 1.16,0.09 1.68,0.28 0.19,0.05 0.37,0.13 0.55,0.22 0,0 0,0 0.01,0 0.86,0.41 1.59,1.05 2.09,1.85 0.1,0.15 0.19,0.31 0.27,0.48 0.04,0.07 0.08,0.15 0.11,0.22 0.23,0.52 0.37,1.09 0.41,1.69 0.01,0.05 0.01,0.1 0.01,0.16 0.01,0.08 0.01,0.16 0.01,0.24 z"
     id="path32" />
  <g
     id="g38"
     transform="translate(-6,-6)">
    <path
       fill="none"
       stroke="#ffffff"
       stroke-linecap="round"
       stroke-linejoin="round"
       stroke-miterlimit="10"
       stroke-width="2"
       d="M 30,11 H 18 c -3.9,0 -7,3.1 -7,7 v 12 c 0,3.9 3.1,7 7,7 h 12 c 3.9,0 7,-3.1 7,-7 V 18 c 0,-3.9 -3.1,-7 -7,-7 z"
       id="path34" />
    <circle
       cx="31"
       cy="16"
       r="1"
       fill="#ffffff"
       id="circle36" />
  </g>
  <g
     id="g42"
     transform="translate(-6,-6)">
    <circle
       cx="24"
       cy="24"
       r="6"
       fill="none"
       stroke="#ffffff"
       stroke-linecap="round"
       stroke-linejoin="round"
       stroke-miterlimit="10"
       stroke-width="2"
       id="circle40" />
  </g>
</svg>
