<?xml version="1.0" encoding="UTF-8" standalone="no"?>
<svg
   viewBox="0 0 36.002998 36.002998"
   width="36.002998"
   height="36.002998"
   version="1.1"
   id="svg4"
   sodipodi:docname="twitter.svg"
   inkscape:version="1.1 (c68e22c387, 2021-05-23)"
   xmlns:inkscape="http://www.inkscape.org/namespaces/inkscape"
   xmlns:sodipodi="http://sodipodi.sourceforge.net/DTD/sodipodi-0.dtd"
   xmlns="http://www.w3.org/2000/svg"
   xmlns:svg="http://www.w3.org/2000/svg">
  <defs
     id="defs8" />
  <sodipodi:namedview
     id="namedview6"
     pagecolor="#ffffff"
     bordercolor="#666666"
     borderopacity="1.0"
     inkscape:pageshadow="2"
     inkscape:pageopacity="0.0"
     inkscape:pagecheckerboard="0"
     showgrid="false"
     width="36.003px"
     inkscape:zoom="16.916667"
     inkscape:cx="-1.0049261"
     inkscape:cy="14.985222"
     inkscape:window-width="2400"
     inkscape:window-height="1421"
     inkscape:window-x="2391"
     inkscape:window-y="-9"
     inkscape:window-maximized="1"
     inkscape:current-layer="svg4" />
  <path
     fill="#03a9f4"
     d="m 36.002999,6.9304992 c -1.323,0.586 -2.746,0.977 -4.247,1.162 1.526,-0.906 2.7,-2.351 3.251,-4.058 -1.428,0.837 -3.01,1.452 -4.693,1.776 -1.344,-1.425 -3.261,-2.309 -5.385,-2.309 -4.08,0 -7.387,3.278 -7.387,7.3199998 0,0.572 0.067,1.129 0.193,1.67 -6.138,-0.308 -11.5819998,-3.2259998 -15.2239998,-7.6539998 -0.64,1.082 -1,2.349 -1,3.686 0,2.5409998 1.301,4.7779998 3.285,6.0959998 -1.211,-0.037 -2.351,-0.374 -3.349,-0.914 0,0.022 0,0.055 0,0.086 0,3.551 2.547,6.508 5.923,7.181 -0.617,0.169 -1.269,0.263 -1.941,0.263 -0.477,0 -0.942,-0.054 -1.392,-0.135 0.94,2.902 3.667,5.023 6.8979998,5.086 -2.5279998,1.96 -5.7119998,3.134 -9.1739998,3.134 -0.598,0 -1.18300002,-0.034 -1.76100002397461,-0.104 C 3.2709992,31.287499 7.1549992,32.501499 11.323999,32.501499 c 13.585,0 21.017,-11.156 21.017,-20.834 0,-0.317 -0.01,-0.633 -0.025,-0.945 1.45,-1.0239998 2.7,-2.3159998 3.687,-3.7919998"
     id="path2" />
</svg>
